<svg width="128" xmlns="http://www.w3.org/2000/svg" height="128" fill="none"><defs><clipPath id="a" class="frame-clip frame-clip-def"><rect rx="0" ry="0" width="128" height="128"/></clipPath></defs><g clip-path="url(#a)"><g class="fills"><rect rx="0" ry="0" width="128" height="128" class="frame-background"/></g><g style="fill: rgb(0, 0, 0);" class="frame-children"><path d="M109.854 21.074s-7.546 14.098-19.013 19.01c-9.002 3.863-20.442 2.043-24.934 1.105-4.51.846-15.984 2.433-24.906-1.613C29.636 34.431 22.38 20.182 22.38 20.182s15.472-3.938 26.836 1.207c2.443 1.099 4.679 2.603 6.709 4.306 7.678 6.459 9.76 7.219 20.277.207 2.065-1.662 4.331-3.119 6.795-4.169 11.468-4.912 26.857-.659 26.857-.659Z" style="fill: rgb(177, 204, 51);" class="fills"/><g stroke-linejoin="round" stroke-miterlimit="10" class="strokes"><path d="M109.854 21.074s-7.546 14.098-19.013 19.01c-9.002 3.863-20.442 2.043-24.934 1.105-4.51.846-15.984 2.433-24.906-1.613C29.636 34.431 22.38 20.182 22.38 20.182s15.472-3.938 26.836 1.207c2.443 1.099 4.679 2.603 6.709 4.306 7.678 6.459 9.76 7.219 20.277.207 2.065-1.662 4.331-3.119 6.795-4.169 11.468-4.912 26.857-.659 26.857-.659Z" style="fill: none; stroke-width: 2; stroke: rgb(177, 204, 51); stroke-opacity: 1;" class="stroke-shape"/></g><path d="M114.127 71.665c-.629 25.732-23.198 45.929-48.687 49.072-.102.02-.203.02-.304.041h-.223c-.426 0-.832-.021-1.278-.041-22.995-5.191-45.179-25.408-47.491-49.072 0-3.569.386-7.077 1.116-10.443 1.297-6.063 3.751-11.721 7.077-16.729 5.353-5.861 13.282-9.551 22.143-9.551 4.603 0 8.922.973 12.795 2.737a13.156 13.156 0 0 0 8.294.893 12.038 12.038 0 0 0 2.697-.893c3.853-1.764 8.192-2.737 12.775-2.737 9.895 0 18.655 4.603 23.928 11.68a24.38 24.38 0 0 1 1.581 2.312 49.936 49.936 0 0 1 2.596 5.84c.02.04.04.06.04.101.244.649.467 1.318.67 1.987.182.588.365 1.176.527 1.764.142.528.284 1.035.405 1.562a50.295 50.295 0 0 1 1.318 9.794c.021.568.021 1.115.021 1.683Z" style="fill: rgb(255, 167, 192);" class="fills"/><g stroke-linejoin="round" stroke-miterlimit="10" class="strokes"><path d="M114.127 71.665c-.629 25.732-23.198 45.929-48.687 49.072-.102.02-.203.02-.304.041h-.223c-.426 0-.832-.021-1.278-.041-22.995-5.191-45.179-25.408-47.491-49.072 0-3.569.386-7.077 1.116-10.443 1.297-6.063 3.751-11.721 7.077-16.729 5.353-5.861 13.282-9.551 22.143-9.551 4.603 0 8.922.973 12.795 2.737a13.156 13.156 0 0 0 8.294.893 12.038 12.038 0 0 0 2.697-.893c3.853-1.764 8.192-2.737 12.775-2.737 9.895 0 18.655 4.603 23.928 11.68a24.38 24.38 0 0 1 1.581 2.312 49.936 49.936 0 0 1 2.596 5.84c.02.04.04.06.04.101.244.649.467 1.318.67 1.987.182.588.365 1.176.527 1.764.142.528.284 1.035.405 1.562a50.295 50.295 0 0 1 1.318 9.794c.021.568.021 1.115.021 1.683Z" style="fill: none; stroke-width: 2; stroke: rgb(255, 167, 192); stroke-opacity: 1;" class="stroke-shape"/></g><path d="M67.569 38.572c2.129-.406 4.157-.73 6.063-.933-3.488.608-6.671 1.156-7.361 1.217.446-.102.872-.203 1.298-.284Z" style="fill: rgb(230, 122, 148);" class="fills"/><g stroke-linejoin="round" stroke-miterlimit="10" class="strokes"><path d="M67.569 38.572c2.129-.406 4.157-.73 6.063-.933-3.488.608-6.671 1.156-7.361 1.217.446-.102.872-.203 1.298-.284Z" style="fill: none; stroke-width: 2; stroke: rgb(230, 122, 148); stroke-opacity: 1;" class="stroke-shape"/></g><path d="M114.127 71.665c-.629 25.732-23.198 45.929-48.687 49.072 40.988-9.569 63.702-89.069 8.192-83.098 4.38-.75 9.267-1.561 10.321-1.561 9.348 0 17.683 4.116 23.016 10.544a24.38 24.38 0 0 1 1.581 2.312 49.936 49.936 0 0 1 2.596 5.84c.02.04.04.06.04.101.244.649.467 1.318.67 1.987.182.588.365 1.176.527 1.764.142.528.284 1.035.405 1.562a43.453 43.453 0 0 1 1.318 9.794c.021.568.021 1.115.021 1.683Z" style="fill: rgb(230, 122, 148);" class="fills"/><g stroke-linejoin="round" stroke-miterlimit="10" class="strokes"><path d="M114.127 71.665c-.629 25.732-23.198 45.929-48.687 49.072 40.988-9.569 63.702-89.069 8.192-83.098 4.38-.75 9.267-1.561 10.321-1.561 9.348 0 17.683 4.116 23.016 10.544a24.38 24.38 0 0 1 1.581 2.312 49.936 49.936 0 0 1 2.596 5.84c.02.04.04.06.04.101.244.649.467 1.318.67 1.987.182.588.365 1.176.527 1.764.142.528.284 1.035.405 1.562a43.453 43.453 0 0 1 1.318 9.794c.021.568.021 1.115.021 1.683Z" style="fill: none; stroke-width: 2; stroke: rgb(230, 122, 148); stroke-opacity: 1;" class="stroke-shape"/></g><path d="M67.486 65.207c-1.456-6.984-6.908-11.219-6.908-11.219" fill="none" style="fill: none;" class="fills"/><g fill="none" stroke-linejoin="round" stroke-miterlimit="10" class="strokes"><path d="M67.486 65.207c-1.456-6.984-6.908-11.219-6.908-11.219" style="fill: none; stroke-width: 2; stroke: rgb(230, 122, 148); stroke-opacity: 1;" class="stroke-shape"/></g><path d="M76.088 26.131c2.039-1.68 4.294-3.17 6.733-4.243 11.422-5.027 26.865-.916 26.865-.916" fill="none" style="fill: none;" class="fills"/><g fill="none" stroke-linejoin="round" stroke-miterlimit="10" class="strokes"><path d="M76.088 26.131c2.039-1.68 4.294-3.17 6.733-4.243 11.422-5.027 26.865-.916 26.865-.916" style="fill: none; stroke-width: 2; stroke: rgb(0, 0, 0); stroke-opacity: 1;" class="stroke-shape"/></g><path d="M109.686 20.972s-2.23 4.267-6.13 8.948" fill="none" style="fill: none;" class="fills"/><g fill="none" stroke-linejoin="round" stroke-miterlimit="10" class="strokes"><path d="M109.686 20.972s-2.23 4.267-6.13 8.948" style="fill: none; stroke-width: 2; stroke: rgb(0, 0, 0); stroke-opacity: 1;" class="stroke-shape"/></g><path d="M55.16 25.128c-2.039-1.679-4.295-3.17-6.734-4.243-11.421-5.026-26.864-.916-26.864-.916" fill="none" style="fill: none;" class="fills"/><g fill="none" stroke-linejoin="round" stroke-miterlimit="10" class="strokes"><path d="M55.16 25.128c-2.039-1.679-4.295-3.17-6.734-4.243-11.421-5.026-26.864-.916-26.864-.916" style="fill: none; stroke-width: 2; stroke: rgb(0, 0, 0); stroke-opacity: 1;" class="stroke-shape"/></g><path d="M21.562 19.969s2.077 3.976 5.73 8.463" fill="none" style="fill: none;" class="fills"/><g fill="none" stroke-linejoin="round" stroke-miterlimit="10" class="strokes"><path d="M21.562 19.969s2.077 3.976 5.73 8.463" style="fill: none; stroke-width: 2; stroke: rgb(0, 0, 0); stroke-opacity: 1;" class="stroke-shape"/></g><path d="M64.903 22.159c-.65-4.725-2.338-11.438-6.708-16.027" fill="none" style="fill: none;" class="fills"/><g fill="none" stroke-linejoin="round" stroke-miterlimit="10" class="strokes"><path d="M64.903 22.159c-.65-4.725-2.338-11.438-6.708-16.027" style="fill: none; stroke-width: 2; stroke: rgb(0, 0, 0); stroke-opacity: 1;" class="stroke-shape"/></g><path d="M113.777 73.095c-.624 24.918-23.023 44.476-48.321 47.52-.101.02-.201.02-.302.039h-.221c-.423 0-.846.059-1.268-.039-22.822-5.027-44.84-24.605-47.134-47.52-.342-3.437.382-6.854 1.107-10.113 1.288-5.872 3.723-11.35 7.024-16.2 5.313-5.675 13.182-9.249 21.977-9.249 4.568 0 8.855.942 12.699 2.651a13.359 13.359 0 0 0 8.231.864 12.148 12.148 0 0 0 2.677-.864c3.824-1.709 8.13-2.651 12.679-2.651 9.821 0 18.515 4.457 23.748 11.31a23.925 23.925 0 0 1 1.57 2.239 48.037 48.037 0 0 1 2.576 5.655c.02.04.04.059.04.099.241.628.463 1.276.664 1.924.181.569.362 1.139.523 1.708.141.511.282 1.002.403 1.512a41.157 41.157 0 0 1 1.308 9.485c.02.55.02 1.08.02 1.63Z" fill="none" style="fill: none;" class="fills"/><g fill="none" stroke-linejoin="round" stroke-miterlimit="10" class="strokes"><path d="M113.777 73.095c-.624 24.918-23.023 44.476-48.321 47.52-.101.02-.201.02-.302.039h-.221c-.423 0-.846.059-1.268-.039-22.822-5.027-44.84-24.605-47.134-47.52-.342-3.437.382-6.854 1.107-10.113 1.288-5.872 3.723-11.35 7.024-16.2 5.313-5.675 13.182-9.249 21.977-9.249 4.568 0 8.855.942 12.699 2.651a13.359 13.359 0 0 0 8.231.864 12.148 12.148 0 0 0 2.677-.864c3.824-1.709 8.13-2.651 12.679-2.651 9.821 0 18.515 4.457 23.748 11.31a23.925 23.925 0 0 1 1.57 2.239 48.037 48.037 0 0 1 2.576 5.655c.02.04.04.059.04.099.241.628.463 1.276.664 1.924.181.569.362 1.139.523 1.708.141.511.282 1.002.403 1.512a41.157 41.157 0 0 1 1.308 9.485c.02.55.02 1.08.02 1.63Z" style="fill: none; stroke-width: 2; stroke: rgb(0, 0, 0); stroke-opacity: 1;" class="stroke-shape"/></g><path d="M74.113 98.196c4.14-14.532 6.578-35.72-7.578-49.911" fill="none" style="fill: none;" class="fills"/><g fill="none" stroke-linejoin="round" stroke-miterlimit="10" class="strokes"><path d="M74.113 98.196c4.14-14.532 6.578-35.72-7.578-49.911" style="fill: none; stroke-width: 2; stroke: rgb(0, 0, 0); stroke-opacity: 1;" class="stroke-shape"/></g></g></g></svg>