<?xml version="1.0" encoding="UTF-8"?>
<svg id="emoji" xmlns="http://www.w3.org/2000/svg" version="1.1" viewBox="0 0 72 72">
  <defs>
    <style>
      .cls-1 {
        fill: #18373e;
      }

      .cls-1, .cls-2, .cls-3, .cls-4 {
        stroke-width: 0px;
      }

      .cls-2 {
        fill: #d16b33;
      }

      .cls-3 {
        fill: #ef7f36;
      }

      .cls-4 {
        fill: #b1cc33;
      }
    </style>
  </defs>
  <g id="color">
    <path class="cls-4" d="M59.4,14.4c-.1-.3-.4-.5-.7-.6-.3,0-8-2.2-13.9.4-1.2.5-2.4,1.3-3.5,2.1-4.9,3.3-5.4,2.8-8.8,0-1.2-1-2.3-1.7-3.5-2.3-5.9-2.7-13.6-.7-13.9-.7-.3,0-.5.3-.7.6-.1.3-.1.6,0,.9.2.3,3.8,7.4,9.7,10,4.4,2,9.7,1.4,12.7.9,1.5.3,3.5.6,5.8.6s4.7-.3,6.9-1.3c5.9-2.5,9.7-9.5,9.9-9.8.1-.3.2-.6,0-.9Z"/>
    <path class="cls-3" d="M60.7,39.8c-.3,12.7-11.4,22.7-24,24.2,0,0,0,0-.2,0h-.1c-.2,0-.4,0-.6,0-11.3-2.6-22.3-12.5-23.4-24.2,0-1.8.2-3.5.6-5.2.6-3,1.9-5.8,3.5-8.2,2.6-2.9,6.6-4.7,10.9-4.7s4.4.5,6.3,1.4c1.3.6,2.7.7,4.1.4.5,0,.9-.2,1.3-.4,1.9-.9,4-1.4,6.3-1.4,4.9,0,9.2,2.3,11.8,5.8.3.4.5.8.8,1.1.5.9.9,1.9,1.3,2.9,0,0,0,0,0,0,.1.3.2.7.3,1,0,.3.2.6.3.9,0,.3.1.5.2.8.4,1.6.6,3.2.7,4.8,0,.3,0,.6,0,.8Z"/>
    <path class="cls-2" d="M61.7,38.9c0-1.7-.3-3.4-.7-5,0-.2-.1-.4-.2-.6v-.2c-.1-.3-.2-.6-.3-.9-.1-.3-.2-.7-.3-1,0,0,0,0,0-.1-.4-1.1-.8-2-1.3-3-.3-.5-.6-.9-.9-1.3-2.9-3.5-7.4-5.6-12.1-5.6s-1.5.1-5.3.8c-.5,0-.9.6-.8,1.1,0,.5.5.9,1.1.9,8.5-.9,13.8,2.4,14.9,9.2,1.8,10.7-6.9,26.9-19.3,29.8-.5.1-.9.6-.8,1.1,0,.5.5.8,1,.8s0,0,.1,0c13.9-1.7,24.6-12.5,24.9-25.2h0c0-.3,0-.6,0-.9Z"/>
    <path class="cls-2" d="M37.7,37.6c-.5,0-.9-.3-1-.8-.6-3-3-4.9-3-4.9-.4-.3-.5-1-.2-1.4.3-.4,1-.5,1.4-.2.1,0,3,2.4,3.8,6.1.1.5-.2,1.1-.8,1.2,0,0-.1,0-.2,0Z"/>
  </g>
  <g id="line">
    <path class="cls-1" d="M42,18.2c-.3,0-.6-.1-.8-.4-.4-.4-.3-1.1.1-1.4,1.2-1,2.4-1.7,3.6-2.2,5.9-2.6,13.6-.6,13.9-.5.5.1.9.7.7,1.2-.1.5-.7.9-1.2.7,0,0-7.4-1.9-12.6.4-1,.5-2.1,1.1-3.1,1.9-.2.2-.4.2-.6.2Z"/>
    <path class="cls-1" d="M55.5,20.1c-.2,0-.5,0-.6-.2-.4-.4-.5-1-.1-1.4,1.8-2.2,2.9-4.2,2.9-4.2.3-.5.9-.7,1.3-.4.5.3.7.9.4,1.3,0,0-1.2,2.2-3.1,4.6-.2.2-.5.4-.8.4Z"/>
    <path class="cls-1" d="M31.6,17.8c-.2,0-.4,0-.6-.2-1-.8-2.1-1.5-3.1-1.9-5.3-2.3-12.5-.4-12.6-.4-.5.1-1.1-.2-1.2-.7-.1-.5.2-1.1.7-1.2.3,0,8-2.1,13.9.5,1.2.5,2.4,1.3,3.6,2.2.4.4.5,1,.1,1.4-.2.2-.5.4-.8.4Z"/>
    <path class="cls-1" d="M17.9,19.5c-.3,0-.6-.1-.8-.4-1.8-2.3-2.9-4.3-2.9-4.3-.3-.5,0-1.1.4-1.3s1.1,0,1.3.4c0,0,1,1.9,2.7,4,.3.4.3,1.1-.1,1.4-.2.2-.4.2-.6.2Z"/>
    <path class="cls-1" d="M36.4,16.4c-.5,0-.9-.4-1-.9-.3-2.2-1.1-5.3-3-7.4-.4-.4-.4-1,0-1.4.4-.4,1-.4,1.4,0,2.3,2.4,3.2,5.9,3.6,8.5,0,.5-.3,1.1-.9,1.1,0,0,0,0-.1,0Z"/>
    <path class="cls-1" d="M36.1,65c-.2,0-.3,0-.5,0-12.7-2.9-23.1-13.6-24.2-25.1-.2-2,.2-3.9.6-5.5.5-2.3,1.3-4.5,2.4-6.5s1.1-1.9,1.8-2.7,1.5-1.4,2.4-1.9c1.7-1.1,3.7-1.9,5.7-2.3s2-.3,3.1-.3c2.4,0,4.6.5,6.7,1.4,1.1.5,2.3.6,3.5.4.4,0,.8-.2,1.1-.4,2.1-1,4.4-1.4,6.7-1.4,5,0,9.7,2.3,12.6,6.2.3.3.5.7.8,1.2.5,1,.9,1.9,1.3,3,0,0,0,0,0,.1.1.3.2.7.3,1,0,.3.2.6.3.9v.2c.1.2.2.4.2.6.4,1.7.6,3.4.7,5,0,.3,0,.6,0,.9-.3,12.6-11,23.5-24.9,25.2,0,0,0,0-.1,0,0,0-.1,0-.2,0h-.2c0,0-.1,0-.2,0ZM22.5,23.5c-3.3,1.2-5.8,3.8-7.2,7s-1.1,2.8-1.4,4.3c-.4,1.8-.7,3.3-.5,4.8,1.1,11.7,12.4,21,22.6,23.3,0,0,.1,0,.2,0h.3s0,0,0,0c12.7-1.6,22.9-11.8,23.2-23.2,0-.3,0-.5,0-.8,0-1.5-.2-3.1-.6-4.6,0-.2,0-.4-.2-.6v-.2c-.1-.3-.2-.5-.3-.8,0-.3-.2-.6-.3-.9,0,0,0,0,0,0,0,0,0,0,0,0-.4-1-.8-1.9-1.2-2.8-.2-.4-.5-.7-.7-1-2.5-3.4-6.6-5.4-11-5.4s-4.1.4-5.9,1.3c-.5.2-1,.4-1.6.5-1.5.3-3.2.2-4.7-.5-1.8-.8-3.8-1.3-5.9-1.3s-3.3.3-4.8.8ZM60.7,39.8h0,0Z"/>
    <path class="cls-1" d="M41,53.9c0,0-.2,0-.3,0-.5-.2-.8-.7-.7-1.2,2-7.1,3.1-17.1-3.5-23.6-.4-.4-.4-1,0-1.4.4-.4,1-.4,1.4,0,7.3,7.3,6.2,17.9,4,25.6-.1.4-.5.7-1,.7Z"/>
  </g>
</svg>